<?xml version="1.0" encoding="UTF-8"?>
<!-- Generated by Pixelmator Pro 3.8 -->
<svg width="1000" height="1000" viewBox="0 0 1000 1000" xmlns="http://www.w3.org/2000/svg">
    <path id="-" fill="#d3eaf1" stroke="none" visibility="hidden" d="M 0 0 L 1000 0 L 1000 1000 L 0 1000 Z"/>
    <g id="folder-svgrepo-com">
        <path id="path1" fill="none" stroke="#1c274c" stroke-width="52.344906" stroke-linecap="round" opacity="0.5" d="M 738.93335 426.800049 L 556.350037 426.800049"/>
        <path id="path2" fill="none" stroke="#1c274c" stroke-width="54.775005" d="M 154.666656 315.415039 C 154.666656 283.187988 154.666656 267.07428 157.199097 253.652222 C 168.347275 194.565369 214.565323 148.34729 273.652222 137.199097 C 287.07428 134.666687 303.188019 134.666687 335.415039 134.666687 C 349.534943 134.666687 356.595062 134.666687 363.380249 135.30127 C 392.633026 138.036743 420.38092 149.530396 443.000092 168.28064 C 448.246094 172.629761 453.237885 177.622314 463.221558 187.606689 L 483.316681 207.699951 C 513.106995 237.489563 528.002136 252.384338 545.836853 262.308167 C 555.634277 267.759338 566.030579 272.06427 576.813965 275.138245 C 596.441711 280.733337 617.504456 280.733337 659.633789 280.733337 L 673.28009 280.733337 C 769.406494 280.733337 817.466187 280.733337 848.709778 308.831482 C 851.583679 311.416077 854.318726 314.151245 856.900452 317.024719 C 885 348.265442 885 396.328308 885 492.453339 L 885 572.866699 C 885 710.578369 885 779.437866 842.217102 822.217102 C 799.437866 865.000061 730.578369 865.000061 592.866699 865.000061 L 446.800018 865.000061 C 309.086884 865.000061 240.230698 865.000061 197.448502 822.217102 C 154.666656 779.437866 154.666656 710.578369 154.666656 572.866699 L 154.666656 315.415039 Z"/>
    </g>
</svg>
