<?xml version="1.0" encoding="UTF-8"?>
<!-- Generated by Pixelmator Pro 3.8 -->
<svg width="1000" height="1000" viewBox="0 0 1000 1000" xmlns="http://www.w3.org/2000/svg">
    <g id="gm">
        <path id="path1" fill="none" stroke="#292d32" stroke-width="51.452824" stroke-linecap="round" stroke-linejoin="round" d="M 324.249969 129.916687 L 324.249969 235.666687"/>
        <path id="path2" fill="none" stroke="#292d32" stroke-width="51.452824" stroke-linecap="round" stroke-linejoin="round" d="M 606.249939 129.916687 L 606.249939 235.666687"/>
        <path id="path3" fill="none" stroke="#292d32" stroke-width="52.875" stroke-linecap="round" stroke-linejoin="round" d="M 782.5 359.041626 L 782.5 539.874146 C 751.127502 514.84668 711.294922 500.041656 667.9375 500.041656 C 624.580017 500.041656 584.04248 515.199158 552.317505 540.931641 C 509.664978 574.419189 482.874969 626.94165 482.874969 685.104126 C 482.874969 719.64917 492.744995 752.78418 509.664978 780.279175 C 522.70752 801.781616 539.627441 820.464172 559.719971 834.916626 L 324.249969 834.916626 C 200.875 834.916626 148 764.416626 148 658.666626 L 148 359.041626 C 148 253.291626 200.875 182.791687 324.249969 182.791687 L 606.249939 182.791687 C 729.625 182.791687 782.5 253.291626 782.5 359.041626 Z"/>
        <path id="path4" fill="none" stroke="#292d32" stroke-width="51.452824" stroke-linecap="round" stroke-linejoin="round" d="M 289 447.166626 L 500.5 447.166626"/>
        <path id="path5" fill="none" stroke="#292d32" stroke-width="51.452824" stroke-linecap="round" stroke-linejoin="round" d="M 289 623.416626 L 381.35498 623.416626"/>
        <path id="path6" fill="none" stroke="#292d32" stroke-width="52.875" stroke-linecap="round" stroke-linejoin="round" d="M 853 685.104126 C 853 719.64917 843.129944 752.78418 826.209961 780.279175 C 816.339966 797.199158 804.002502 812.00415 789.549988 823.989136 C 757.119995 852.894165 714.820007 870.166626 667.9375 870.166626 C 627.400024 870.166626 590.034973 857.124146 559.719971 834.916626 C 539.627441 820.464172 522.70752 801.781616 509.664978 780.279175 C 492.744995 752.78418 482.874969 719.64917 482.874969 685.104126 C 482.874969 626.94165 509.664978 574.419189 552.317505 540.931641 C 584.04248 515.199158 624.580017 500.041656 667.9375 500.041656 C 711.294922 500.041656 751.127502 514.84668 782.5 539.874146 C 825.504944 573.714172 853 626.236694 853 685.104126 Z"/>
        <path id="path7" fill="none" stroke="#292d32" stroke-width="52.875" stroke-linecap="round" stroke-linejoin="round" d="M 667.9375 773.229126 C 667.9375 724.584167 707.41748 685.104126 756.0625 685.104126 C 707.41748 685.104126 667.9375 645.624146 667.9375 596.979126 C 667.9375 645.624146 628.457458 685.104126 579.8125 685.104126 C 628.457458 685.104126 667.9375 724.584167 667.9375 773.229126 Z"/>
    </g>
</svg>
